<?xml version="1.0" encoding="UTF-8"?>
<svg version="1.1" viewBox="0 0 1096 988" width="1280" height="1280" xmlns="http://www.w3.org/2000/svg">
<path transform="translate(413,159)" d="m0 0h67l7 2-2 11-8 39-6 12-4 5-5 12-2 9v15l5 15 6 9 9 9 10 6 8 3 6 1h18l13-4 11-7 8-8 8-14 3-10 1-13-4-18-5-14 1-11 9-35 5-13 1-1h114l9 1 4 8 7 23 3 11 3 13v9l-6 14-2 13 1 15 4 13 6 9 10 9 7 5 10 4 5 1h18l9-2 16-8 8-8 8-14 3-11 1-9-2-17-4-10-8-11-3-6-10-37-4-11v-3l3-1h74l18 3 19 6 16 8 14 10 10 8 11 11 12 18 8 14 6 18 3 15 4 32 5 37 3 26 5 35 5 40 10 78 24 184 5 37 5 39 3 21 1 19v19l-2 18-4 14-8 18-9 17-11 12-5 5-11 10-13 8-16 8-20 6-11 2-11 1-31 1h-499l-48-1-18-2-16-5-16-7-17-10-12-11-10-10-11-15-9-17-8-24-2-9v-34l3-29 3-22 2-12h4l28 28 20 12 14 7 19 7 16 4 14 1h19l17-1 16-4 18-6 17-8 18-11 11-10 8-7 10-12 9-12 11-21 5-14 6-29 2-13v-12l-4-28-5-19-6-16-9-17-9-12-23-23-14-11-21-11-20-8-16-4-6-1-26-1-10-1 2-5 8-9 10-18 5-15 2-12v-26l-3-16-6-14-10-16-11-12-12-9-17-9-23-5-2-4 4-39 4-27 5-17 7-16 11-18 11-12 10-9 13-9 21-11 17-6z" fill="#F59526"/>
<path transform="translate(354,528)" d="m0 0h10l22 3 16 4 19 8 11 7 13 10 7 6 11 14 9 14 7 16 7 25 1 5v22l-3 15-6 21-7 16-14 19-10 11-17 13-12 7-20 8-19 4-10 1h-17l-20-3-16-5-16-8-13-9-10-8-10-10-10-13-10-19-7-21-2-11v-33l5-21 6-16 8-15 11-14 9-10 10-8 18-11 10-5 16-5z" fill="#638BC6"/>
<path transform="translate(107,432)" d="m0 0h19l15 3 16 7 11 7 12 11 10 15 6 13 4 16v20l-4 16-5 12-7 11-18 18-10 6-13 5-10 3-8 1h-19l-14-3-16-7-9-6-10-9-9-12-6-12-5-15-2-8v-19l4-17 7-16 10-13 12-11 14-8 15-6z" fill="#EC5B8F"/>
<path transform="translate(626,11)" d="m0 0h10l14 3 15 8 11 8 14 14 11 14 10 15 12 21 12 25 10 25 7 21 8 29 3 14 3 17 3 7 11 10 3 6v10l-4 10-8 7-7 3h-13l-10-5-5-6-3-8v-9l4-10 7-6 1-6-5-25-9-33-12-32-13-28-12-23-10-15-8-10-9-10-9-8-14-8-9-3h-7l-15 5-10 7-10 9-13 18-11 19-11 22-10 26-9 29-7 27-4 22-1 15 7 8 4 8 1 7-3 9-6 9-7 4-4 1h-14l-8-4-6-7-4-10v-8l6-10 8-7 2-1 3-18 7-36 9-30 10-28 11-25 8-16 7-12 11-16 12-14 7-7 13-9 12-6z" fill="#222225"/>
<path transform="translate(273,360)" d="m0 0h15l15 4 15 8 10 9 6 8 7 14 2 7 1 15-1 14-4 13-6 10-11 12-9 6-10 5-12 3-8 1h-9l-15-3-15-8-9-7-9-11-4-7-4-11-3-15v-7l5-21 6-11 9-10 11-9 13-6z" fill="#7CB14B"/>
<path transform="translate(214,200)" d="m0 0h17l10 4 9 7 8 10 3 9 1 5v7l-3 13-5 8-8 8-12 6-4 1h-16l-10-4-8-6-7-8-4-10-2-9 1-11 5-12 7-8 5-4 10-5z" fill="#EB5A8F"/>
<path transform="translate(134,333)" d="m0 0h12l11 4 9 8 6 11 1 4v14l-4 10-9 10-12 6-12 1-9-2-10-6-6-7-4-8-2-8v-9l4-10 9-10 9-6z" fill="#A84988"/>
<path transform="translate(969,252)" d="m0 0 2 3 3 15 4 32 5 37 3 26 5 35 5 40 10 78 24 184 5 37 5 39 3 21 1 19v19l-2 18-4 14-8 18-9 17-11 12-5 5-11 10-13 8-16 8-9 2 2-2 9-4 15-8 4-3h2v-2l6-4 5-5h2l2-4h2l2-4 8-9 7-10 10-18 4-11 4-16 2-15-1-18-3-32-4-28-6-48-3-21-7-55-5-38-7-52-12-96-5-39-4-33-7-49-3-25-4-29-1-11z" fill="#FEFEFE"/>
<path transform="translate(319,951)" d="m0 0 14 1 8 1 101 1h492v1l-11 1-31 1h-499l-48-1-18-2-8-2z" fill="#FEFEFE"/>
<path transform="translate(621,31)" d="m0 0h16l12 5 4 4-5-2-13-5h-7l-15 5-10 7-10 9-13 18-11 19-11 22-10 26-9 29-7 27-4 22-1 17-4-3 1-12 1-1 1-11h2v-11l6-26 8-25 8-22 11-25 11-21 3-4h2l1-5 9-12 9-10 10-8 6-4z" fill="#DFE7F2"/>
<path transform="translate(1042,820)" d="m0 0h2v17l-2 18-4 14-8 18-9 17-11 12-5 5-11 10-13 8-16 8-9 2 2-2 9-4 15-8 4-3h2v-2l6-4 5-5h2l2-4h2l2-4 8-9 7-10 10-18 4-11 4-16 2-15z" fill="#FEFEFE"/>
<path transform="translate(482,623)" d="m0 0 2 4 3 13v22l-3 15-6 21-7 16-14 19-10 11-17 13-12 7-3-1 11-7 12-8 14-14 9-11 10-17 6-15 2-7 3-11 1-8v-29z" fill="#FEFEFE"/>
<path transform="translate(1021,647)" d="m0 0h2l7 55 5 37 5 39 3 21 1 21h-2l-1-4-3-32-4-28-6-48-3-21-4-31z" fill="#FEFEFE"/>
<path transform="translate(197,495)" d="m0 0 2 4 1 5v20l-4 16-5 12-7 11-18 18-10 6-13 5-10 3h-7l3-2 10-2 14-5 5-4 11-8 8-8 6-9h2l2-5 5-8 3-9 2-15z" fill="#FEFEFE"/>
<path transform="translate(341,406)" d="m0 0 2 4 1 15-1 14-4 13-6 10-11 12-9 6-10 5-12 3-8 1h-9l-15-3-2-2 12 2h21l13-4h3v-2l8-5 8-7h2l2-4 9-11 5-14 1-4z" fill="#FEFEFE"/>
<path transform="translate(168,350)" d="m0 0 3 4 2 6v14l-4 10-9 10-12 6h-5l10-5 8-6 5-6-9 6-3 3h-2v-2h2l2-4h2v-2l2-1 4-8v-7l4-7z" fill="#6B89C3"/>
<path transform="translate(484,160)" d="m0 0 3 1-2 11-8 39-6 12-4 5-5 12-2 9v19l-2-3-1-2v-16l3-13 6-12 6-10 3-7 4-17 3-14z" fill="#FEFEFE"/>
<path transform="translate(166,381)" d="m0 0 1 2-7 8-10 7-9 3-11-1-12-6-6-7 2-1 3 4 7 1 7 3h11l10-3 4-2 5-4 4-1z" fill="#708CC4"/>
<path transform="translate(259,226)" d="m0 0 2 4 1 5v7l-3 13-5 8-8 8-12 6-4 1h-16l-4-2 20-1 7-2 5-4 8-7 5-7 3-10 1-14z" fill="#FEFEFE"/>
<path transform="translate(533,240)" d="m0 0 3 3 3 10-2 9-6 10-5 4-7 2h-14l-5-2 4-1h14l6-3 7-7 3-7v-10z" fill="#C4D3E8"/>
<path transform="translate(538,157)" d="m0 0 1 4-4 14v8l-5 22-3 22v7l-4-3 1-12 1-1 1-11h2v-11l6-26z" fill="#DEE6F1"/>
<path transform="translate(710,205)" d="m0 0h1l2 10v9l-6 14-2 13 1 15 2 11-2-2-4-13v-13l2-14 6-13z" fill="#FEFEFE"/>
<path transform="translate(779,242)" d="m0 0 3 4 1 2v10l-4 10-8 7-7 3h-13v-1l12-2 8-4 6-8 2-4z" fill="#CAD7EB"/>
<path transform="translate(547,136)" d="m0 0 1 3-9 29-3 11h-2l1-8 3-10 2-11 5-12z" fill="#DFE7F3"/>
<path transform="translate(166,381)" d="m0 0 1 2-7 8-10 7-9 3-11-1-1-2h7l13-3 10-9 6-2z" fill="#AF5590"/>
<path transform="translate(171,356)" d="m0 0 2 4v14l-4 10-9 10-12 6h-5l10-5 8-6 5-6 4-8 1-5z" fill="#FEFEFE"/>
<path transform="translate(347,494)" d="m0 0h21l16 2 10 2v1l-27-2h-16l-4-1z" fill="#FEFEFE"/>
<path transform="translate(1038,778)" d="m0 0h2l3 21 1 21h-2l-1-4-3-32z" fill="#FDFBFC"/>
<path transform="translate(556,113)" d="m0 0 1 3-8 20-4 2 3-10 6-14z" fill="#D9E1EF"/>
<path transform="translate(538,157)" d="m0 0 1 4-4 14v8l-3 5-3 12-1-4 6-26z" fill="#8AA3D0"/>
<path transform="translate(621,31)" d="m0 0h16l12 5 4 4-5-2-13-5h-7l-10 3-3-1 3-3z" fill="#D1DBEC"/>
<path transform="translate(779,242)" d="m0 0 3 4 1 2v10l-3 1z" fill="#C8D3E8"/>
<path transform="translate(539,161)" d="m0 0 1 4-4 14h-2l1-8 3-9z" fill="#FEFEFE"/>
<path transform="translate(437,516)" d="m0 0 6 1 8 6 2 3-4-2-12-7z" fill="#FEFEFE"/>
<path transform="translate(766,274)" d="m0 0 2 1-1 2-3 1h-13v-1l12-2z" fill="#A7B4D8"/>
</svg>
